<svg xmlns="http://www.w3.org/2000/svg" xmlns:xlink="http://www.w3.org/1999/xlink" fill="none" version="1.1" width="117.58984375" height="117.58984375" viewBox="0 0 117.58984375 117.58984375"><rect x="0" y="0" width="117.58999633789062" height="117.58999633789062" rx="0" fill="#22262D" fill-opacity="1" style="mix-blend-mode:passthrough"/><path d="M56.874434,86C64.612709,86,72.767021,83.77872500000001,77.093796,80.570213L81.420574,65.761703L78.258701,65.761703C72.18457000000001,74.89361600000001,65.77761100000001,79.50070600000001,58.704992000000004,79.50070600000001C49.468987,79.50070600000001,43.977306999999996,72.34326200000001,43.977306999999996,61.648228C43.977306999999996,46.839714,53.379726000000005,34.0056729,64.279881,34.0056729C68.689865,34.0056729,73.016644,37.1319132,76.09531,41.985815C77.426628,44.042553,78.67474,46.017019000000005,80.006054,48.073757L83.001514,48.073757L84,31.9489324C78.924358,29.5631218,71.26928699999999,28,65.111954,28C43.894099,28,29,42.150355,29,62.22411C29,76.785816,39.400908,86,56.874434,86Z" fill="#FAFAFA" fill-opacity="1"/></svg>